<svg height="131" preserveAspectRatio="none" viewBox="0 0 288 131" width="288" xmlns="http://www.w3.org/2000/svg">
  <style>
    path { fill: #FFF; }
  </style>
  <path d="m288 23q0-23-23-23h-242q-23 0-23 23v85.95q0 23 23 23h242q23 0 23-23zm-23-17q17 0 17 17v85.95q0 17-17 17h-242q-17 0-17-17v-85.95q0-17 17-17zm-189.55 79.85v-3.45q-2.8-1.35-6.3-1.35-3.65 0-5.85 1.7-2.2 1.7-2.2 4.65 0 4.05 4.75 5.85l3.5 1.35q1.6.6 2.2 1.15.6.55.6 1.5 0 1.35-1 2-.95.65-3.1.65-3.1 0-7.15-1.3v3.5q1.45.75 3.35 1.15 1.9.45 3.85.45 4.05 0 6.3-1.85 2.25-1.8 2.25-4.95 0-2.05-1.1-3.45-1.1-1.3-3.65-2.3l-3.25-1.25q-1.7-.65-2.35-1.25-.65-.55-.65-1.45 0-1.25.9-1.8.95-.6 2.85-.6 2.75 0 6.05 1.05m-35.25-3.1v3.5q4.25-1.4 7.5-1.4 2.35 0 3.25.85.95.85.95 3v2.45q-2.65-.6-4.9-.6-3.8 0-6.05 1.85-2.2 1.85-2.2 4.95 0 2.8 1.8 4.55 1.85 1.8 4.75 1.8 1.8 0 3.6-.75 1.75-.7 3.2-1.95l.4 2.05h4.35v-15.05q0-3.6-2-5.25-2-1.7-6.2-1.7-2.3 0-4.6.45-2.25.45-3.85 1.25m3.6 14.3q0-3.4 4.2-3.4 1.7 0 3.9.45v4.05q-1.25.95-2.55 1.5-1.35.5-2.5.5-1.45 0-2.25-.8-.8-.85-.8-2.3m-5.35-59.6h-4.95v24.7q0 1.05-.55 1.5-.5.4-1.85.4l-2.25-.1v3.4q2 .6 3.7.6 5.9 0 5.9-6.05zm-2.5-3.55q1.4 0 2.2-.75.8-.75.8-2.1 0-1.35-.8-2.1-.8-.75-2.2-.75-1.35 0-2.15.75-.8.75-.8 2.1 0 1.35.8 2.1.8.75 2.15.75m13.4 3.55h-4.95v15.55q0 3.1 1.65 4.75 1.6 1.7 4.55 1.7 3.95 0 7.9-3l.5 2.35h4.1v-21.35h-4.95v16.35q-2.65 1.7-5.25 1.7-1.85 0-2.7-.95-.85-.95-.85-3zm41.15 54.4 9.6-10.15h-5.95l-8.4 9.2v-18.95h-5v31.1h5v-9.95l8.9 9.95h6.1zm-8.35-50.25v-3.45q-2.8-1.35-6.3-1.35-3.65 0-5.85 1.7-2.2 1.7-2.2 4.65 0 4.05 4.75 5.85l3.5 1.35q1.6.6 2.2 1.15.6.55.6 1.5 0 1.35-1 2-.95.65-3.1.65-3.1 0-7.15-1.3v3.5q1.45.75 3.35 1.15 1.9.45 3.85.45 4.05 0 6.3-1.85 2.25-1.8 2.25-4.95 0-2.05-1.1-3.45-1.1-1.3-3.65-2.3l-3.25-1.25q-1.7-.65-2.35-1.25-.65-.55-.65-1.45 0-1.25.9-1.8.95-.6 2.85-.6 2.75 0 6.05 1.05m2.85-.4h3.6v11.6q0 3.2 1.6 4.75 1.6 1.55 4.9 1.55 2.55 0 4.75-.8v-3.45q-1.5.35-3.25.35-1.65 0-2.35-.6-.7-.6-.7-2.05v-11.35h6.1v-3.75h-6.1v-5.9h-4l-.75 6-3.8.55zm43.25-22.2h-5v93.95h5zm66.75 24.9q-2.5 1.05-4.2 3-1.7 2-2.6 4.75v.05q-.85 2.7-.85 6.1 0 7.05 3.35 10.7 3.35 3.7 9.75 3.7 4.35 0 8.25-1.6 1.1-.45 1.1-1.85v-.75q0-1.55-1.45-1.5-.45 0-.9.2-.35.15-.9.3-2.95.85-5.9.85-4.3 0-6.45-2.4-1.95-2.25-2.15-6.65 1.5.35 3 .55 2.1.25 4.1.25 5.8 0 8.6-1.9 2.95-1.95 2.95-6.1 0-4.15-2.75-6.45-2.65-2.3-7.5-2.3-3.05 0-5.45 1.05m-.4 5.3q2.05-2.05 5.6-2.05 5.75 0 5.85 4.45 0 2-1.45 2.95-1.65 1-5.25 1-2 0-3.9-.25-1.6-.2-3.25-.6.55-3.55 2.4-5.5m-32.4-2q3.1 0 4.4 1.2 1.25 1.2 1.25 3.9v3.3q-1.4-.4-2.85-.6-1.95-.35-3.75-.35-4.85 0-7.6 2.4-2.9 2.4-2.9 6.6 0 3.8 2.35 6.05 2.35 2.3 6.3 2.3 4.5 0 8.65-2.85l.05.75q.1 1.55 1.7 1.55h1.05q1.65 0 1.65-1.65v-18.35q.05-8.6-9.85-8.6-2.25 0-4.55.45-2.35.4-4.4 1.25-1.2.45-1.2 1.8v.8q0 1.55 1.45 1.55.3 0 .85-.2.25-.1.8-.25h.05q3.45-1.05 6.55-1.05m5.65 17.75q-2.05 1.3-4.05 1.95-2.15.75-4 .75-4.3 0-4.3-4.05.1-4.8 6.45-4.8 2.85 0 5.9.75zm11.45-33.6q-1.65 0-1.65 1.6v33.2q0 2.55 1.4 3.95 1.4 1.5 3.85 1.5.5 0 1.15-.05.65-.05 1-.2h.05q1.3-.3 1.3-1.6v-.95q0-1.6-1.55-1.55-.35 0-.75.05-.35.05-.6.05-.7 0-1-.2v-.05q-.2-.3-.2-1v-33.15q0-1.6-1.6-1.6zm35.6 12.3q-1.55 0-1.5 1.4-.05.3.45 1.1l7.8 10.85-8.55 11.9v-.05q-.6.8-.5 1.2-.1 1.4 1.5 1.4h1.45q1.1 0 1.75-.95l6.85-10 7.05 10h.05q.65.95 1.7.95h1.6q1.55 0 1.5-1.4.05-.4-.45-1.15l-8.55-12.1 7.7-10.65q.5-.75.4-1.1.1-1.4-1.5-1.4h-1.4q-1 0-1.7.9l-6.15 8.7-6.1-8.7q-.7-.9-1.8-.9zm31.95 42.25q-.3-.45-.9-.6-.65-.2-1.3.1-9.2 3.9-19.25 5.9-9.7 1.95-19.15 1.95-13.5 0-26.6-3.55-12.75-3.45-23.7-9.8-.9-.55-1.4.15-.2.25-.15.6.05.4.4.75 10.15 9.15 22.85 14.1 13.1 5.1 27.45 5.1 10.75 0 21.6-3.2 11.45-3.4 19.55-9.4.65-.5.8-1.1.1-.55-.2-1m9-4.2q.1-2-.4-2.6-.45-.55-2.4-.95-2.05-.45-4.65-.4-6.65.05-10.85 3.05-.75.5-.65 1.05.1.55.9.45 4.7-.55 7.3-.65 4.75-.1 5.65 1.05.9 1.2-.45 5.75-.7 2.5-2.45 6.9-.35.75.15 1 .5.25 1.2-.35 4-3.3 5.8-9.75.75-2.45.85-4.55m-6.95-34.5q3.1 0 4.45 1.2 1.25 1.2 1.25 3.9v3.3q-1.4-.4-2.85-.6-2-.35-3.75-.35-4.9 0-7.65 2.4-2.85 2.4-2.85 6.6 0 3.8 2.35 6.05 2.3 2.3 6.25 2.3 4.5 0 8.65-2.85l.1.75q.1 1.55 1.65 1.55h1.1q1.6 0 1.6-1.65v-18.35q.05-8.6-9.8-8.6-2.25 0-4.6.45-2.35.4-4.4 1.25-1.15.45-1.2 1.8v.8q0 1.55 1.45 1.55.35 0 .85-.2.25-.1.85-.25 3.45-1.05 6.55-1.05m1.6 19.7q-2.15.75-4 .75-4.25 0-4.3-4.05.1-4.8 6.45-4.8 2.85 0 5.95.75v5.4q-2.1 1.3-4.05 1.95z"/>
</svg>