
<svg xmlns="http://www.w3.org/2000/svg" version="1.1" xmlns:xlink="http://www.w3.org/1999/xlink" preserveAspectRatio="none" x="0px" y="0px" width="288px" height="131px" viewBox="0 0 288 131">
<defs>
<g id="Layer0_0_FILL">
<path fill="#FFFFFF" stroke="none" d="
M 288 23
Q 288 0 265 0
L 23 0
Q 0 0 0 23
L 0 108.95
Q 0 131.95 23 131.95
L 265 131.95
Q 288 131.95 288 108.95
L 288 23
M 265 6
Q 282 6 282 23
L 282 108.95
Q 282 125.95 265 125.95
L 23 125.95
Q 6 125.95 6 108.95
L 6 23
Q 6 6 23 6
L 265 6
M 75.45 85.85
L 75.45 82.4
Q 72.65 81.05 69.15 81.05 65.5 81.05 63.3 82.75 61.1 84.45 61.1 87.4 61.1 91.45 65.85 93.25
L 69.35 94.6
Q 70.95 95.2 71.55 95.75 72.15 96.3 72.15 97.25 72.15 98.6 71.15 99.25 70.2 99.9 68.05 99.9 64.95 99.9 60.9 98.6
L 60.9 102.1
Q 62.35 102.85 64.25 103.25 66.15 103.7 68.1 103.7 72.15 103.7 74.4 101.85 76.65 100.05 76.65 96.9 76.65 94.85 75.55 93.45 74.45 92.15 71.9 91.15
L 68.65 89.9
Q 66.95 89.25 66.3 88.65 65.65 88.1 65.65 87.2 65.65 85.95 66.55 85.4 67.5 84.8 69.4 84.8 72.15 84.8 75.45 85.85
M 40.2 82.75
L 40.2 86.25
Q 44.45 84.85 47.7 84.85 50.05 84.85 50.95 85.7 51.9 86.55 51.9 88.7
L 51.9 91.15
Q 49.25 90.55 47 90.55 43.2 90.55 40.95 92.4 38.75 94.25 38.75 97.35 38.75 100.15 40.55 101.9 42.4 103.7 45.3 103.7 47.1 103.7 48.9 102.95 50.65 102.25 52.1 101
L 52.5 103.05 56.85 103.05 56.85 88
Q 56.85 84.4 54.85 82.75 52.85 81.05 48.65 81.05 46.35 81.05 44.05 81.5 41.8 81.95 40.2 82.75
M 43.8 97.05
Q 43.8 93.65 48 93.65 49.7 93.65 51.9 94.1
L 51.9 98.15
Q 50.65 99.1 49.35 99.65 48 100.15 46.85 100.15 45.4 100.15 44.6 99.35 43.8 98.5 43.8 97.05
M 38.45 37.45
L 33.5 37.45 33.5 62.15
Q 33.5 63.2 32.95 63.65 32.45 64.05 31.1 64.05
L 28.85 63.95 28.85 67.35
Q 30.85 67.95 32.55 67.95 38.45 67.95 38.45 61.9
L 38.45 37.45
M 35.95 33.9
Q 37.35 33.9 38.15 33.15 38.95 32.4 38.95 31.05 38.95 29.7 38.15 28.95 37.35 28.2 35.95 28.2 34.6 28.2 33.8 28.95 33 29.7 33 31.05 33 32.4 33.8 33.15 34.6 33.9 35.95 33.9
M 49.35 37.45
L 44.4 37.45 44.4 53
Q 44.4 56.1 46.05 57.75 47.65 59.45 50.6 59.45 54.55 59.45 58.5 56.45
L 59 58.8 63.1 58.8 63.1 37.45 58.15 37.45 58.15 53.8
Q 55.5 55.5 52.9 55.5 51.05 55.5 50.2 54.55 49.35 53.6 49.35 51.55
L 49.35 37.45
M 90.5 91.85
L 100.1 81.7 94.15 81.7 85.75 90.9 85.75 71.95 80.75 71.95 80.75 103.05 85.75 103.05 85.75 93.1 94.65 103.05 100.75 103.05 90.5 91.85
M 82.15 41.6
L 82.15 38.15
Q 79.35 36.8 75.85 36.8 72.2 36.8 70 38.5 67.8 40.2 67.8 43.15 67.8 47.2 72.55 49
L 76.05 50.35
Q 77.65 50.95 78.25 51.5 78.85 52.05 78.85 53 78.85 54.35 77.85 55 76.9 55.65 74.75 55.65 71.65 55.65 67.6 54.35
L 67.6 57.85
Q 69.05 58.6 70.95 59 72.85 59.45 74.8 59.45 78.85 59.45 81.1 57.6 83.35 55.8 83.35 52.65 83.35 50.6 82.25 49.2 81.15 47.9 78.6 46.9
L 75.35 45.65
Q 73.65 45 73 44.4 72.35 43.85 72.35 42.95 72.35 41.7 73.25 41.15 74.2 40.55 76.1 40.55 78.85 40.55 82.15 41.6
M 85 41.2
L 88.6 41.2 88.6 52.8
Q 88.6 56 90.2 57.55 91.8 59.1 95.1 59.1 97.65 59.1 99.85 58.3
L 99.85 54.85
Q 98.35 55.2 96.6 55.2 94.95 55.2 94.25 54.6 93.55 54 93.55 52.55
L 93.55 41.2 99.65 41.2 99.65 37.45 93.55 37.45 93.55 31.55 89.55 31.55 88.8 37.55 85 38.1 85 41.2
M 128.25 19
L 123.25 19 123.25 112.95 128.25 112.95 128.25 19
M 195 43.9
Q 192.5 44.95 190.8 46.9 189.1 48.9 188.2 51.65
L 188.2 51.7
Q 187.35 54.4 187.35 57.8 187.35 64.85 190.7 68.5 194.05 72.2 200.45 72.2 204.8 72.2 208.7 70.6 209.8 70.15 209.8 68.75
L 209.8 68
Q 209.8 66.45 208.35 66.5 207.9 66.5 207.45 66.7 207.1 66.85 206.55 67 203.6 67.85 200.65 67.85 196.35 67.85 194.2 65.45 192.25 63.2 192.05 58.8 193.55 59.15 195.05 59.35 197.15 59.6 199.15 59.6 204.95 59.6 207.75 57.7 210.7 55.75 210.7 51.6 210.7 47.45 207.95 45.15 205.3 42.85 200.45 42.85 197.4 42.85 195 43.9
M 194.6 49.2
Q 196.65 47.15 200.2 47.15 205.95 47.15 206.05 51.6 206.05 53.6 204.6 54.55 202.95 55.55 199.35 55.55 197.35 55.55 195.45 55.3 193.85 55.1 192.2 54.7 192.75 51.15 194.6 49.2
M 162.2 47.2
Q 165.3 47.2 166.6 48.4 167.85 49.6 167.85 52.3
L 167.85 55.6
Q 166.45 55.2 165 55 163.05 54.65 161.25 54.65 156.4 54.65 153.65 57.05 150.75 59.45 150.75 63.65 150.75 67.45 153.1 69.7 155.45 72 159.4 72 163.9 72 168.05 69.15
L 168.1 69.9
Q 168.2 71.45 169.8 71.45
L 170.85 71.45
Q 172.5 71.45 172.5 69.8
L 172.5 51.45
Q 172.55 42.85 162.65 42.85 160.4 42.85 158.1 43.3 155.75 43.7 153.7 44.55 152.5 45 152.5 46.35
L 152.5 47.15
Q 152.5 48.7 153.95 48.7 154.25 48.7 154.8 48.5 155.05 48.4 155.6 48.25
L 155.65 48.25
Q 159.1 47.2 162.2 47.2
M 167.85 64.95
Q 165.8 66.25 163.8 66.9 161.65 67.65 159.8 67.65 155.5 67.65 155.5 63.6 155.6 58.8 161.95 58.8 164.8 58.8 167.85 59.55
L 167.85 64.95
M 179.3 31.35
Q 177.65 31.35 177.65 32.95
L 177.65 66.15
Q 177.65 68.7 179.05 70.1 180.45 71.6 182.9 71.6 183.4 71.6 184.05 71.55 184.7 71.5 185.05 71.35
L 185.1 71.35
Q 186.4 71.05 186.4 69.75
L 186.4 68.8
Q 186.4 67.2 184.85 67.25 184.5 67.25 184.1 67.3 183.75 67.35 183.5 67.35 182.8 67.35 182.5 67.15
L 182.5 67.1
Q 182.3 66.8 182.3 66.1
L 182.3 32.95
Q 182.3 31.35 180.7 31.35
L 179.3 31.35
M 214.9 43.65
Q 213.35 43.65 213.4 45.05 213.35 45.35 213.85 46.15
L 221.65 57 213.1 68.9 213.1 68.85
Q 212.5 69.65 212.6 70.05 212.5 71.45 214.1 71.45
L 215.55 71.45
Q 216.65 71.45 217.3 70.5
L 224.15 60.5 231.2 70.5 231.25 70.5
Q 231.9 71.45 232.95 71.45
L 234.55 71.45
Q 236.1 71.45 236.05 70.05 236.1 69.65 235.6 68.9
L 227.05 56.8 234.75 46.15
Q 235.25 45.4 235.15 45.05 235.25 43.65 233.65 43.65
L 232.25 43.65
Q 231.25 43.65 230.55 44.55
L 224.4 53.25 218.3 44.55
Q 217.6 43.65 216.5 43.65
L 214.9 43.65
M 246.85 85.9
Q 246.55 85.45 245.95 85.3 245.3 85.1 244.65 85.4 235.45 89.3 225.4 91.3 215.7 93.25 206.25 93.25 192.75 93.25 179.65 89.7 166.9 86.25 155.95 79.9 155.05 79.35 154.55 80.05 154.35 80.3 154.4 80.65 154.45 81.05 154.8 81.4 164.95 90.55 177.65 95.5 190.75 100.6 205.1 100.6 215.85 100.6 226.7 97.4 238.15 94 246.25 88 246.9 87.5 247.05 86.9 247.15 86.35 246.85 85.9
M 255.85 81.7
Q 255.95 79.7 255.45 79.1 255 78.55 253.05 78.15 251 77.7 248.4 77.75 241.75 77.8 237.55 80.8 236.8 81.3 236.9 81.85 237 82.4 237.8 82.3 242.5 81.75 245.1 81.65 249.85 81.55 250.75 82.7 251.65 83.9 250.3 88.45 249.6 90.95 247.85 95.35 247.5 96.1 248 96.35 248.5 96.6 249.2 96 253.2 92.7 255 86.25 255.75 83.8 255.85 81.7
M 248.9 47.2
Q 252 47.2 253.35 48.4 254.6 49.6 254.6 52.3
L 254.6 55.6
Q 253.2 55.2 251.75 55 249.75 54.65 248 54.65 243.1 54.65 240.35 57.05 237.5 59.45 237.5 63.65 237.5 67.45 239.85 69.7 242.15 72 246.1 72 250.6 72 254.75 69.15
L 254.85 69.9
Q 254.95 71.45 256.5 71.45
L 257.6 71.45
Q 259.2 71.45 259.2 69.8
L 259.2 51.45
Q 259.25 42.85 249.4 42.85 247.15 42.85 244.8 43.3 242.45 43.7 240.4 44.55 239.25 45 239.2 46.35
L 239.2 47.15
Q 239.2 48.7 240.65 48.7 241 48.7 241.5 48.5 241.75 48.4 242.35 48.25 245.8 47.2 248.9 47.2
M 250.5 66.9
Q 248.35 67.65 246.5 67.65 242.25 67.65 242.2 63.6 242.3 58.8 248.65 58.8 251.5 58.8 254.6 59.55
L 254.6 64.95
Q 252.5 66.25 250.55 66.9
L 250.5 66.9 Z"/>
</g>
</defs>

<g transform="matrix( 1, 0, 0, 1, 0,0) ">
<use xlink:href="#Layer0_0_FILL"/>
</g>
</svg>
